<mxfile host="app.diagrams.net" modified="2023-10-31T07:38:31.822Z" agent="Mozilla/5.0 (Windows NT 10.0; Win64; x64) AppleWebKit/537.36 (KHTML, like Gecko) Chrome/118.0.0.0 Safari/537.36 Edg/118.0.2088.76" etag="sBwsn5ybD6qgbt9FzFNi" version="22.0.8" type="github">
  <diagram name="Page-1" id="1PqdWoSaJWrxitLMl5rY">
    <mxGraphModel dx="1829" dy="1692" grid="0" gridSize="10" guides="1" tooltips="1" connect="1" arrows="1" fold="1" page="1" pageScale="1" pageWidth="827" pageHeight="1169" math="0" shadow="0">
      <root>
        <mxCell id="0" />
        <mxCell id="1" parent="0" />
        <mxCell id="lh3RgN_V7VgUxewfRanb-2" value="Single player" style="ellipse;whiteSpace=wrap;html=1;" vertex="1" parent="1">
          <mxGeometry x="351" y="185" width="120" height="80" as="geometry" />
        </mxCell>
        <mxCell id="lh3RgN_V7VgUxewfRanb-3" value="Multiplayer" style="ellipse;whiteSpace=wrap;html=1;" vertex="1" parent="1">
          <mxGeometry x="351" y="66" width="120" height="80" as="geometry" />
        </mxCell>
        <mxCell id="lh3RgN_V7VgUxewfRanb-4" value="Mode" style="ellipse;whiteSpace=wrap;html=1;" vertex="1" parent="1">
          <mxGeometry x="601" y="-53" width="120" height="80" as="geometry" />
        </mxCell>
        <mxCell id="lh3RgN_V7VgUxewfRanb-5" value="Topic" style="ellipse;whiteSpace=wrap;html=1;" vertex="1" parent="1">
          <mxGeometry x="601" y="185" width="120" height="80" as="geometry" />
        </mxCell>
        <mxCell id="lh3RgN_V7VgUxewfRanb-6" value="Edit profile&lt;br&gt;" style="ellipse;whiteSpace=wrap;html=1;" vertex="1" parent="1">
          <mxGeometry x="354" y="328" width="120" height="80" as="geometry" />
        </mxCell>
        <mxCell id="lh3RgN_V7VgUxewfRanb-7" value="Login" style="ellipse;whiteSpace=wrap;html=1;" vertex="1" parent="1">
          <mxGeometry x="133.99999999999997" y="185" width="120" height="80" as="geometry" />
        </mxCell>
        <mxCell id="lh3RgN_V7VgUxewfRanb-11" style="rounded=0;orthogonalLoop=1;jettySize=auto;html=1;entryX=0;entryY=0.5;entryDx=0;entryDy=0;exitX=1;exitY=0.5;exitDx=0;exitDy=0;" edge="1" parent="1" source="lh3RgN_V7VgUxewfRanb-8" target="lh3RgN_V7VgUxewfRanb-7">
          <mxGeometry relative="1" as="geometry">
            <mxPoint x="211" y="278" as="sourcePoint" />
          </mxGeometry>
        </mxCell>
        <mxCell id="lh3RgN_V7VgUxewfRanb-8" value="Sign Up" style="ellipse;whiteSpace=wrap;html=1;" vertex="1" parent="1">
          <mxGeometry x="-18" y="185" width="120" height="80" as="geometry" />
        </mxCell>
        <mxCell id="lh3RgN_V7VgUxewfRanb-12" value="" style="endArrow=classic;html=1;rounded=0;exitX=1;exitY=0.5;exitDx=0;exitDy=0;entryX=0;entryY=0.5;entryDx=0;entryDy=0;" edge="1" parent="1" source="lh3RgN_V7VgUxewfRanb-7" target="lh3RgN_V7VgUxewfRanb-2">
          <mxGeometry width="50" height="50" relative="1" as="geometry">
            <mxPoint x="387" y="298" as="sourcePoint" />
            <mxPoint x="437" y="248" as="targetPoint" />
          </mxGeometry>
        </mxCell>
        <mxCell id="lh3RgN_V7VgUxewfRanb-13" value="" style="endArrow=classic;html=1;rounded=0;exitX=0.5;exitY=0;exitDx=0;exitDy=0;entryX=0;entryY=0.5;entryDx=0;entryDy=0;" edge="1" parent="1" source="lh3RgN_V7VgUxewfRanb-7" target="lh3RgN_V7VgUxewfRanb-3">
          <mxGeometry width="50" height="50" relative="1" as="geometry">
            <mxPoint x="387" y="298" as="sourcePoint" />
            <mxPoint x="437" y="248" as="targetPoint" />
          </mxGeometry>
        </mxCell>
        <mxCell id="lh3RgN_V7VgUxewfRanb-16" value="" style="endArrow=classic;html=1;rounded=0;exitX=1;exitY=0.5;exitDx=0;exitDy=0;entryX=0;entryY=0.5;entryDx=0;entryDy=0;" edge="1" parent="1" source="lh3RgN_V7VgUxewfRanb-2" target="lh3RgN_V7VgUxewfRanb-5">
          <mxGeometry width="50" height="50" relative="1" as="geometry">
            <mxPoint x="460" y="382" as="sourcePoint" />
            <mxPoint x="595" y="231" as="targetPoint" />
          </mxGeometry>
        </mxCell>
        <mxCell id="lh3RgN_V7VgUxewfRanb-17" value="" style="endArrow=classic;html=1;rounded=0;exitX=0.5;exitY=1;exitDx=0;exitDy=0;entryX=0;entryY=0.5;entryDx=0;entryDy=0;" edge="1" parent="1" source="lh3RgN_V7VgUxewfRanb-7" target="lh3RgN_V7VgUxewfRanb-6">
          <mxGeometry width="50" height="50" relative="1" as="geometry">
            <mxPoint x="387" y="298" as="sourcePoint" />
            <mxPoint x="437" y="248" as="targetPoint" />
          </mxGeometry>
        </mxCell>
        <mxCell id="lh3RgN_V7VgUxewfRanb-20" value="Invite" style="ellipse;whiteSpace=wrap;html=1;" vertex="1" parent="1">
          <mxGeometry x="597" y="34" width="120" height="80" as="geometry" />
        </mxCell>
        <mxCell id="lh3RgN_V7VgUxewfRanb-23" value="" style="endArrow=classic;html=1;rounded=0;exitX=1;exitY=0.5;exitDx=0;exitDy=0;entryX=0.5;entryY=0;entryDx=0;entryDy=0;" edge="1" parent="1" source="lh3RgN_V7VgUxewfRanb-3" target="lh3RgN_V7VgUxewfRanb-5">
          <mxGeometry width="50" height="50" relative="1" as="geometry">
            <mxPoint x="387" y="298" as="sourcePoint" />
            <mxPoint x="437" y="248" as="targetPoint" />
          </mxGeometry>
        </mxCell>
        <mxCell id="lh3RgN_V7VgUxewfRanb-24" value="Player" style="shape=umlActor;verticalLabelPosition=bottom;verticalAlign=top;html=1;outlineConnect=0;" vertex="1" parent="1">
          <mxGeometry x="-75" y="205" width="30" height="60" as="geometry" />
        </mxCell>
        <mxCell id="lh3RgN_V7VgUxewfRanb-25" value="" style="endArrow=classic;html=1;rounded=0;exitX=1;exitY=0.3333333333333333;exitDx=0;exitDy=0;exitPerimeter=0;entryX=0;entryY=0.5;entryDx=0;entryDy=0;" edge="1" parent="1" source="lh3RgN_V7VgUxewfRanb-24" target="lh3RgN_V7VgUxewfRanb-8">
          <mxGeometry width="50" height="50" relative="1" as="geometry">
            <mxPoint x="387" y="298" as="sourcePoint" />
            <mxPoint x="437" y="248" as="targetPoint" />
          </mxGeometry>
        </mxCell>
        <mxCell id="lh3RgN_V7VgUxewfRanb-33" value="Mode multiplayer" style="swimlane;fontStyle=0;childLayout=stackLayout;horizontal=1;startSize=30;horizontalStack=0;resizeParent=1;resizeParentMax=0;resizeLast=0;collapsible=1;marginBottom=0;whiteSpace=wrap;html=1;" vertex="1" parent="1">
          <mxGeometry x="516" y="293" width="138" height="115" as="geometry" />
        </mxCell>
        <mxCell id="lh3RgN_V7VgUxewfRanb-35" value="Classic" style="text;strokeColor=none;fillColor=none;align=left;verticalAlign=middle;spacingLeft=4;spacingRight=4;overflow=hidden;points=[[0,0.5],[1,0.5]];portConstraint=eastwest;rotatable=0;whiteSpace=wrap;html=1;" vertex="1" parent="lh3RgN_V7VgUxewfRanb-33">
          <mxGeometry y="30" width="138" height="25" as="geometry" />
        </mxCell>
        <mxCell id="lh3RgN_V7VgUxewfRanb-34" value="Quick attack" style="text;strokeColor=none;fillColor=none;align=left;verticalAlign=middle;spacingLeft=4;spacingRight=4;overflow=hidden;points=[[0,0.5],[1,0.5]];portConstraint=eastwest;rotatable=0;whiteSpace=wrap;html=1;" vertex="1" parent="lh3RgN_V7VgUxewfRanb-33">
          <mxGeometry y="55" width="138" height="30" as="geometry" />
        </mxCell>
        <mxCell id="lh3RgN_V7VgUxewfRanb-36" value="Draft&amp;nbsp;" style="text;strokeColor=none;fillColor=none;align=left;verticalAlign=middle;spacingLeft=4;spacingRight=4;overflow=hidden;points=[[0,0.5],[1,0.5]];portConstraint=eastwest;rotatable=0;whiteSpace=wrap;html=1;" vertex="1" parent="lh3RgN_V7VgUxewfRanb-33">
          <mxGeometry y="85" width="138" height="30" as="geometry" />
        </mxCell>
        <mxCell id="lh3RgN_V7VgUxewfRanb-43" value="Include" style="endArrow=block;endSize=16;endFill=0;html=1;rounded=0;exitX=1;exitY=0;exitDx=0;exitDy=0;entryX=0;entryY=0.5;entryDx=0;entryDy=0;" edge="1" parent="1" source="lh3RgN_V7VgUxewfRanb-3" target="lh3RgN_V7VgUxewfRanb-20">
          <mxGeometry x="0.0062" width="160" relative="1" as="geometry">
            <mxPoint x="332" y="273" as="sourcePoint" />
            <mxPoint x="492" y="273" as="targetPoint" />
            <mxPoint as="offset" />
          </mxGeometry>
        </mxCell>
        <mxCell id="lh3RgN_V7VgUxewfRanb-44" value="Extends" style="endArrow=block;endSize=16;endFill=0;html=1;rounded=0;exitX=0;exitY=0.5;exitDx=0;exitDy=0;entryX=0.5;entryY=0;entryDx=0;entryDy=0;" edge="1" parent="1" source="lh3RgN_V7VgUxewfRanb-4" target="lh3RgN_V7VgUxewfRanb-3">
          <mxGeometry x="0.0062" width="160" relative="1" as="geometry">
            <mxPoint x="364" y="275" as="sourcePoint" />
            <mxPoint x="363" y="46" as="targetPoint" />
            <mxPoint as="offset" />
          </mxGeometry>
        </mxCell>
        <mxCell id="lh3RgN_V7VgUxewfRanb-45" style="edgeStyle=orthogonalEdgeStyle;rounded=0;orthogonalLoop=1;jettySize=auto;html=1;exitX=0.5;exitY=1;exitDx=0;exitDy=0;" edge="1" parent="1" source="lh3RgN_V7VgUxewfRanb-4" target="lh3RgN_V7VgUxewfRanb-4">
          <mxGeometry relative="1" as="geometry" />
        </mxCell>
        <mxCell id="lh3RgN_V7VgUxewfRanb-46" value="Start" style="ellipse;whiteSpace=wrap;html=1;" vertex="1" parent="1">
          <mxGeometry x="762" y="185" width="120" height="80" as="geometry" />
        </mxCell>
        <mxCell id="lh3RgN_V7VgUxewfRanb-47" value="" style="endArrow=classic;html=1;rounded=0;entryX=0;entryY=0.5;entryDx=0;entryDy=0;exitX=1;exitY=0.5;exitDx=0;exitDy=0;" edge="1" parent="1" source="lh3RgN_V7VgUxewfRanb-5" target="lh3RgN_V7VgUxewfRanb-46">
          <mxGeometry width="50" height="50" relative="1" as="geometry">
            <mxPoint x="387" y="298" as="sourcePoint" />
            <mxPoint x="437" y="248" as="targetPoint" />
          </mxGeometry>
        </mxCell>
        <mxCell id="lh3RgN_V7VgUxewfRanb-48" value="Mode Single" style="swimlane;fontStyle=0;childLayout=stackLayout;horizontal=1;startSize=30;horizontalStack=0;resizeParent=1;resizeParentMax=0;resizeLast=0;collapsible=1;marginBottom=0;whiteSpace=wrap;html=1;" vertex="1" parent="1">
          <mxGeometry x="662" y="293" width="140" height="90" as="geometry" />
        </mxCell>
        <mxCell id="lh3RgN_V7VgUxewfRanb-49" value="Classic" style="text;strokeColor=none;fillColor=none;align=left;verticalAlign=middle;spacingLeft=4;spacingRight=4;overflow=hidden;points=[[0,0.5],[1,0.5]];portConstraint=eastwest;rotatable=0;whiteSpace=wrap;html=1;" vertex="1" parent="lh3RgN_V7VgUxewfRanb-48">
          <mxGeometry y="30" width="140" height="30" as="geometry" />
        </mxCell>
        <mxCell id="lh3RgN_V7VgUxewfRanb-50" value="No time" style="text;strokeColor=none;fillColor=none;align=left;verticalAlign=middle;spacingLeft=4;spacingRight=4;overflow=hidden;points=[[0,0.5],[1,0.5]];portConstraint=eastwest;rotatable=0;whiteSpace=wrap;html=1;" vertex="1" parent="lh3RgN_V7VgUxewfRanb-48">
          <mxGeometry y="60" width="140" height="30" as="geometry" />
        </mxCell>
      </root>
    </mxGraphModel>
  </diagram>
</mxfile>
